#!OML:ASF E:\Steps\Project 1\Capture day 1\Session 2\Subject.ASF
:FULLY-SPECIFIED
:DEGREES
600
root 3.54604 18.0333 7.95579 -154.786 -3.34077 177.095
lowerback -28.161 -2.64966 -6.20372
upperback 0.276394 -1.8582 0.267889
thorax 15.5126 -1.4579 2.91716
lowerneck -0.515641 1.1322 -5.67502
upperneck 28.5521 -4.26233 9.51339
head 9.2724 -3.04427 3.75814
rclavicle 7.57867e-015 1.07344e-014
rhumerus -35.0218 -17.6348 -78.06
rradius 31.443
rwrist 0.168963
rhand -12.1043 -53.6513
rfingers 7.12502
rthumb 13.9564 -83.1629
lclavicle 7.57867e-015 1.07344e-014
lhumerus -29.7834 2.26417 81.232
lradius 20.0551
lwrist -5.82979
lhand -23.739 -11.8582
lfingers 7.12502
lthumb 2.72938 18.1041
rfemur -22.8192 7.29568 17.4646
rtibia 6.58868
rfoot -17.8127 -1.82229
rtoes -10.0098
lfemur -23.8143 -8.2116 -22.7284
ltibia 6.58324
lfoot -4.17975 -7.122
ltoes -20.7875
601
root 3.54407 18.0347 7.95812 -154.781 -3.33229 177.134
lowerback -28.1512 -2.61674 -6.16563
upperback 0.290788 -1.82372 0.254985
thorax 15.5202 -1.43899 2.89642
lowerneck -0.471458 1.13351 -5.70063
upperneck 28.4916 -4.27016 9.59854
head 9.24449 -3.04247 3.79198
rclavicle -1.52567e-014 0
rhumerus -34.9082 -18.0526 -77.9394
rradius 31.2092
rwrist 0.528719
rhand -11.9266 -53.4793
rfingers 7.12502
rthumb 14.1278 -82.979
lclavicle -1.52567e-014 0
lhumerus -29.8447 1.98183 81.3139
lradius 20.2713
lwrist -5.63167
lhand -23.6209 -11.6961
lfingers 7.12502
lthumb 2.84348 18.2647
rfemur -22.8846 7.37679 17.4719
rtibia 6.66098
rfoot -17.7855 -1.89678
rtoes -9.71179
lfemur -23.8338 -8.26879 -22.6673
ltibia 6.57083
lfoot -4.22017 -7.02618
ltoes -21.2513
602
root 3.54199 18.0348 7.96319 -154.743 -3.38128 177.232
lowerback -28.1307 -2.61334 -6.05122
upperback 0.288595 -1.86097 0.279783
thorax 15.5104 -1.44691 2.84728
lowerneck -0.469634 1.12148 -5.74277
upperneck 28.5195 -4.28954 9.57797
head 9.25617 -3.05968 3.79089
rclavicle -3.55328e-015 4.67144e-015
rhumerus -34.7786 -18.3676 -77.8484
rradius 31.0001
rwrist 0.884057
rhand -11.6366 -53.4732
rfingers 7.12502
rthumb 14.4072 -82.9532
lclavicle -3.55328e-015 4.67144e-015
lhumerus -29.8711 1.72669 81.4038
lradius 20.4299
lwrist -5.37415
lhand -23.6378 -11.5635
lfingers 7.12502
lthumb 2.82716 18.3975
rfemur -22.973 7.42219 17.564
rtibia 6.67874
rfoot -17.7981 -1.98769
rtoes -9.62193
lfemur -23.9397 -8.28056 -22.5351
ltibia 6.62349
lfoot -4.2823 -7.009
ltoes -22.3925
603
root 3.53918 18.0332 7.96863 -154.701 -3.36839 177.27
lowerback -28.0864 -2.57051 -5.98567
upperback 0.30621 -1.8196 0.237989
thorax 15.5028 -1.42118 2.7836
lowerneck -0.584765 1.04455 -5.6341
upperneck 28.6113 -4.41048 9.51057
head 9.3204 -3.10898 3.73802
rclavicle 6.31141e-015 2.32578e-014
rhumerus -34.8499 -18.2253 -77.9902
rradius 31.2242
rwrist 0.667522
rhand -11.4652 -53.5252
rfingers 7.12502
rthumb 14.5723 -82.9934
lclavicle 6.31141e-015 2.32578e-014
lhumerus -29.7498 1.33283 81.4742
lradius 20.4611
lwrist -5.06723
lhand -23.673 -11.505
lfingers 7.12502
lthumb 2.79314 18.4564
rfemur -23.0381 7.37535 17.5935
rtibia 6.66385
rfoot -17.837 -1.91613
rtoes -9.70677
lfemur -24.0117 -8.24965 -22.5092
ltibia 6.65118
lfoot -4.3511 -6.98197
ltoes -23.3962
604
root 3.53737 18.0328 7.97045 -154.696 -3.31049 177.239
lowerback -28.1348 -2.72414 -6.13122
upperback -0.0462783 -2.04501 0.366329
thorax 15.1401 -1.53941 2.91157
lowerneck 0.341696 1.37611 -5.91535
upperneck 29.1539 -4.3384 9.62356
head 9.33892 -3.2192 3.83992
rclavicle -1.06847e-015 -3.08116e-015
rhumerus -35.8285 -17.1459 -77.8743
rradius 31.6072
rwrist 0.197043
rhand -11.2126 -53.4
rfingers 7.12502
rthumb 14.8157 -82.8504
lclavicle -1.06847e-015 -3.08116e-015
lhumerus -30.7524 1.6063 81.5003
lradius 20.6386
lwrist -5.01153
lhand -23.6728 -11.2558
lfingers 7.12502
lthumb 2.79338 18.7056
rfemur -23.0412 7.33054 17.5558
rtibia 6.67549
rfoot -17.9025 -1.81942
rtoes -9.95377
lfemur -24.0038 -8.13869 -22.5972
ltibia 6.63686
lfoot -4.31309 -7.07688
ltoes -23.0286
605
root 3.53681 18.0327 7.96927 -154.72 -3.29258 177.203
lowerback -28.0677 -2.63068 -6.06423
upperback 0.313199 -1.86892 0.200691
thorax 15.5067 -1.44782 2.76608
lowerneck -0.53255 1.04996 -5.59201
upperneck 28.8946 -4.55444 9.54479
head 9.42644 -3.2 3.73237
rclavicle 1.63997e-015 3.97569e-015
rhumerus -34.958 -17.9932 -78.0576
rradius 31.3096
rwrist 0.577517
rhand -10.9838 -53.1865
rfingers 7.12502
rthumb 15.0361 -82.6205
lclavicle 1.63997e-015 3.97569e-015
lhumerus -29.8675 1.29056 81.4886
lradius 20.641
lwrist -4.80391
lhand -23.7193 -11.1841
lfingers 7.12502
lthumb 2.74848 18.778
rfemur -22.9804 7.32502 17.5228
rtibia 6.65167
rfoot -17.9037 -1.83021
rtoes -10.0236
lfemur -23.9684 -8.04243 -22.6747
ltibia 6.63046
lfoot -4.25093 -7.2092
ltoes -22.3346
606
root 3.53625 18.033 7.96854 -154.748 -3.28433 177.258
lowerback -28.1446 -2.70393 -6.04619
upperback 0.109833 -2.00882 0.269443
thorax 15.3187 -1.5132 2.77324
lowerneck 0.139358 -3.51841 -5.7638
upperneck 30.0302 -2.59307 7.86894
head 9.62123 0.307809 3.81339
rclavicle 2.50966e-015 1.96797e-014
rhumerus -35.3533 -17.8837 -77.8264
rradius 31.0661
rwrist 0.800292
rhand -11.1442 -53.2579
rfingers 7.12502
rthumb 14.8816 -82.7034
lclavicle 2.50966e-015 1.96797e-014
lhumerus -30.5031 1.54949 81.4398
lradius 20.7824
lwrist -4.82453
lhand -23.6905 -11.5982
lfingers 7.12502
lthumb 2.77625 18.3635
rfemur -22.9263 7.35188 17.5827
rtibia 6.57312
rfoot -17.8378 -1.80431
rtoes -10.0131
lfemur -23.9332 -8.04958 -22.6043
ltibia 6.61533
lfoot -4.27569 -7.14861
ltoes -22.1717
607
root 3.53573 18.034 7.97425 -154.793 -3.22432 177.212
lowerback -28.0157 -2.75491 -6.16591
upperback 0.0310673 -2.06327 0.331312
thorax 15.1757 -1.54655 2.88872
lowerneck 0.320196 -3.47806 -6.00419
upperneck 30.1363 -2.49007 7.91936
head 9.62384 0.346834 3.88828
rclavicle -1.32689e-014 2.98177e-015
rhumerus -35.5482 -17.3728 -77.8226
rradius 31.1823
rwrist 0.446709
rhand -11.4166 -53.6248
rfingers 7.12502
rthumb 14.6191 -83.0896
lclavicle -1.32689e-014 2.98177e-015
lhumerus -30.6544 1.74244 81.4969
lradius 20.8431
lwrist -5.03439
lhand -23.568 -11.9505
lfingers 7.12502
lthumb 2.89453 18.0096
rfemur -22.9249 7.43121 17.489
rtibia 6.59273
rfoot -17.8365 -1.82832
rtoes -10.0049
lfemur -23.9311 -8.10585 -22.6457
ltibia 6.65859
lfoot -4.27032 -7.03517
ltoes -21.6043
608
root 3.53445 18.0345 7.98052 -154.826 -3.19576 177.134
lowerback -27.8751 -2.79095 -6.28694
upperback 0.0457276 -2.07684 0.339666
thorax 15.1308 -1.55928 2.96294
lowerneck 0.269273 -3.49526 -6.05912
upperneck 30.1208 -2.51807 7.8961
head 9.63083 0.320154 3.88612
rclavicle -1.4064e-014 2.88238e-015
rhumerus -35.5398 -16.9678 -77.9454
rradius 31.3443
rwrist 0.0936294
rhand -11.5301 -53.8704
rfingers 7.12502
rthumb 14.5098 -83.3431
lclavicle -1.4064e-014 2.88238e-015
lhumerus -30.5591 1.91162 81.5106
lradius 20.8674
lwrist -5.27172
lhand -23.4375 -12.3242
lfingers 7.12502
lthumb 3.02059 17.6342
rfemur -22.9081 7.49966 17.3588
rtibia 6.60237
rfoot -17.8443 -1.82033
rtoes -9.48519
lfemur -23.9478 -8.10225 -22.7472
ltibia 6.71301
lfoot -4.20858 -7.06504
ltoes -20.9168
609
root 3.53212 18.0339 7.97975 -154.842 -3.20595 177.15
lowerback -27.8931 -2.81631 -6.25822
upperback 0.10432 -2.11077 0.348356
thorax 15.2119 -1.57265 2.94288
lowerneck 0.235071 -3.41983 -6.0563
upperneck 30.0214 -2.42899 7.86861
head 9.59242 0.3485 3.87678
rclavicle 1.57164e-014 1.97791e-014
rhumerus -35.4923 -16.7377 -78.0612
rradius 31.4349
rwrist -0.0335091
rhand -11.5429 -53.7252
rfingers 7.12502
rthumb 14.4975 -83.1987
lclavicle 1.57164e-014 1.97791e-014
lhumerus -30.443 2.14673 81.4709
lradius 20.8966
lwrist -5.34439
lhand -23.3061 -12.8696
lfingers 7.12502
lthumb 3.14751 17.0869
rfemur -22.8465 7.45716 17.3875
rtibia 6.51304
rfoot -17.7861 -1.77112
rtoes -9.37341
lfemur -23.8989 -8.04051 -22.7622
ltibia 6.68143
lfoot -4.18509 -7.16593
ltoes -21.0142
610
root 3.53191 18.0331 7.97998 -154.836 -3.20226 177.16
lowerback -27.8878 -2.86707 -6.26865
upperback 0.143566 -2.17318 0.383173
thorax 15.2643 -1.60215 2.9622
lowerneck 0.171247 -3.36975 -6.06305
upperneck 29.9446 -2.36571 7.78894
head 9.57019 0.357877 3.84928
rclavicle 4.91992e-015 4.87022e-015
rhumerus -35.4491 -16.529 -78.1198
rradius 31.4449
rwrist -0.0551117
rhand -11.458 -53.2868
rfingers 7.12502
rthumb 14.5793 -82.7544
lclavicle 4.91992e-015 4.87022e-015
lhumerus -30.382 2.23884 81.5121
lradius 21.063
lwrist -5.22606
lhand -23.1294 -12.8781
lfingers 7.12502
lthumb 3.31809 17.0758
rfemur -22.8546 7.41891 17.4124
rtibia 6.5058
rfoot -17.7589 -1.78418
rtoes -9.54543
lfemur -23.8792 -8.00321 -22.7649
ltibia 6.6533
lfoot -4.19142 -7.20912
ltoes -21.9616
611
root 3.53275 18.0332 7.98266 -154.801 -3.20943 177.158
lowerback -27.8341 -2.92563 -6.30217
upperback 0.143712 -2.24591 0.411843
thorax 15.2489 -1.63705 2.98486
lowerneck 0.0751821 -3.38434 -6.01817
upperneck 30.0046 -2.35436 7.61769
head 9.60801 0.349192 3.78281
rclavicle -1.02126e-014 4.96962e-016
rhumerus -35.3755 -16.423 -78.1384
rradius 31.3519
rwrist -0.0339285
rhand -11.5464 -53.5386
rfingers 7.12502
rthumb 14.4941 -83.0124
lclavicle -1.02126e-014 4.96962e-016
lhumerus -30.3357 2.24148 81.5635
lradius 21.2601
lwrist -5.0677
lhand -23.0727 -12.5612
lfingers 7.12502
lthumb 3.37292 17.3918
rfemur -22.8993 7.47253 17.397
rtibia 6.50382
rfoot -17.7568 -1.83179
rtoes -9.51405
lfemur -23.935 -7.99221 -22.7586
ltibia 6.67055
lfoot -4.21985 -7.22319
ltoes -22.54
612
root 3.53182 18.0343 7.98373 -154.834 -3.16276 177.102
lowerback -27.7522 -2.94179 -6.3863
upperback 0.133643 -2.24255 0.386761
thorax 15.1983 -1.63976 3.00718
lowerneck 0.0943498 -3.42001 -5.97905
upperneck 30.1172 -2.36304 7.52324
head 9.64618 0.348648 3.74699
rclavicle -6.88292e-015 4.57205e-015
rhumerus -35.4203 -16.1811 -78.2958
rradius 31.5556
rwrist -0.186203
rhand -11.7325 -54.9346
rfingers 7.12502
rthumb 14.3148 -84.4211
lclavicle -6.88292e-015 4.57205e-015
lhumerus -30.3827 2.08776 81.6272
lradius 21.4755
lwrist -4.87281
lhand -23.3293 -12.3218
lfingers 7.12502
lthumb 3.12511 17.635
rfemur -22.8455 7.47713 17.3245
rtibia 6.44879
rfoot -17.7147 -1.8804
rtoes -9.80652
lfemur -23.8914 -8.0008 -22.838
ltibia 6.65164
lfoot -4.22703 -7.22111
ltoes -21.988
613
root 3.52992 18.0357 7.98491 -154.855 -3.14265 177.108
lowerback -27.6887 -2.86339 -6.36819
upperback 0.216458 -2.12603 0.315686
thorax 15.2494 -1.58288 2.96763
lowerneck -0.0890436 -3.49867 -5.90311
upperneck 30.0584 -2.53495 7.62479
head 9.67108 0.278311 3.75325
rclavicle -8.62228e-015 1.2921e-015
rhumerus -35.312 -16.8335 -78.0936
rradius 31.2264
rwrist -0.000355512
rhand -11.7006 -53.2713
rfingers 7.12502
rthumb 14.3455 -82.7557
lclavicle -8.62228e-015 1.2921e-015
lhumerus -30.1504 1.68832 81.7424
lradius 21.6341
lwrist -4.70372
lhand -23.5603 -12.0745
lfingers 7.12502
lthumb 2.90203 17.8855
rfemur -22.8201 7.43556 17.3335
rtibia 6.45939
rfoot -17.7425 -1.84862
rtoes -9.98695
lfemur -23.8671 -8.04144 -22.8324
ltibia 6.64288
lfoot -4.20495 -7.15551
ltoes -21.269
